<svg fill="#FFFFFF" xmlns="http://www.w3.org/2000/svg" xmlns:xlink="http://www.w3.org/1999/xlink" version="1.1" x="0px" y="0px" viewBox="0 0 100 100" enable-background="new 0 0 100 100" xml:space="preserve"><path d="M66.775,22.156c-0.227-0.077-1.444-0.298-1.444-0.298v-0.705c0-0.388-0.417-0.816-0.937-0.937  c-3.127-0.733-13.23-2.694-16.88,1.486c-0.175,0.2-0.299,0.593-0.299,0.859V47.18c0,0.533,0.317,0.665,0.778,0.399  c3.962-2.279,13.378-0.744,16.394-0.173c0.521,0.1,0.943-0.242,0.943-0.774V23.336c0,0,0.775,0.154,0.969,0.22  c0.125,0.043,0.275,0.259,0.275,0.401v23.531c0,0.533-0.432,0.967-0.965,0.971l-15.588,0.085c-0.226,0-0.438,0.114-0.579,0.294  c-0.141,0.181-0.189,0.424-0.133,0.646c0,0.253-1.018,0.987-2.96,0.987s-2.96-0.735-2.954-1.01c0.054-0.22,0.005-0.454-0.136-0.635  c-0.14-0.178-0.354-0.282-0.582-0.282l-15.588-0.085c-0.533-0.004-0.964-0.438-0.964-0.971V23.957c0-0.144,0.145-0.357,0.279-0.403  c0.191-0.065,0.964-0.218,0.964-0.218v23.296c0,0.532,0.422,0.874,0.945,0.774c3.014-0.571,12.431-2.106,16.392,0.173  c0.462,0.266,0.779,0.134,0.779-0.399V22.559c0-0.265-0.125-0.659-0.3-0.859c-3.651-4.179-13.753-2.218-16.881-1.486  c-0.519,0.122-0.936,0.549-0.936,0.937c0,0.39,0,0.705,0,0.705s-1.217,0.221-1.438,0.296c-0.732,0.245-1.285,1.021-1.285,1.805  v24.496c0,0.42,0.164,0.815,0.463,1.113c0.297,0.294,0.691,0.458,1.111,0.458h15.783c0.408,1.142,2.11,1.928,4.346,1.928  c2.236,0,3.939-0.784,4.346-1.926H66.48c0.42,0,0.813-0.164,1.109-0.458c0.299-0.298,0.465-0.693,0.465-1.113V23.959  C68.055,23.176,67.503,22.4,66.775,22.156z M63.006,38.457c-0.072,0.258-0.339,0.407-0.594,0.338  c-0.102-0.029-10.249-2.769-12.984,1.033c-0.095,0.131-0.243,0.2-0.393,0.2c-0.097,0-0.196-0.028-0.281-0.09  c-0.216-0.156-0.265-0.458-0.11-0.674c3.127-4.346,13.581-1.522,14.024-1.4C62.926,37.936,63.076,38.2,63.006,38.457z   M63.006,33.957c-0.072,0.257-0.339,0.405-0.594,0.337c-0.102-0.03-10.249-2.772-12.984,1.032c-0.095,0.131-0.243,0.201-0.393,0.201  c-0.097,0-0.196-0.029-0.281-0.091c-0.216-0.156-0.265-0.458-0.11-0.674c3.127-4.346,13.581-1.521,14.024-1.399  C62.926,33.435,63.076,33.7,63.006,33.957z M63.006,29.455c-0.072,0.256-0.339,0.405-0.594,0.337  c-0.102-0.03-10.249-2.773-12.984,1.033c-0.095,0.131-0.243,0.201-0.393,0.201c-0.097,0-0.196-0.029-0.281-0.091  c-0.216-0.156-0.265-0.457-0.11-0.674c3.127-4.345,13.581-1.521,14.024-1.4C62.926,28.933,63.076,29.198,63.006,29.455z   M63.006,24.953c-0.072,0.257-0.339,0.405-0.594,0.337c-0.102-0.029-10.249-2.768-12.984,1.033  c-0.095,0.131-0.243,0.201-0.393,0.201c-0.097,0-0.196-0.029-0.281-0.091c-0.216-0.156-0.265-0.458-0.11-0.674  c3.127-4.346,13.581-1.521,14.024-1.4C62.926,24.431,63.076,24.695,63.006,24.953z M29.545,24.359  c0.443-0.121,10.895-2.946,14.024,1.4c0.157,0.216,0.107,0.518-0.109,0.674c-0.085,0.062-0.183,0.091-0.282,0.091  c-0.15,0-0.298-0.07-0.392-0.201C40.05,22.52,29.904,25.26,29.802,25.29c-0.253,0.068-0.524-0.08-0.594-0.337  C29.138,24.695,29.288,24.43,29.545,24.359z M29.545,28.861c0.443-0.121,10.895-2.946,14.024,1.4  c0.157,0.217,0.107,0.518-0.109,0.674c-0.085,0.062-0.183,0.091-0.282,0.091c-0.15,0-0.298-0.07-0.392-0.201  c-2.736-3.804-12.882-1.062-12.984-1.033c-0.253,0.068-0.524-0.081-0.594-0.337C29.138,29.198,29.288,28.932,29.545,28.861z   M29.545,33.363c0.443-0.122,10.895-2.948,14.024,1.399c0.157,0.216,0.107,0.518-0.109,0.674c-0.085,0.062-0.183,0.091-0.282,0.091  c-0.15,0-0.298-0.07-0.392-0.201c-2.739-3.806-12.881-1.06-12.984-1.032c-0.253,0.068-0.524-0.08-0.594-0.337  S29.288,33.434,29.545,33.363z M29.545,37.864c0.443-0.121,10.895-2.946,14.024,1.4c0.157,0.216,0.107,0.518-0.109,0.674  c-0.085,0.062-0.183,0.09-0.282,0.09c-0.15,0-0.298-0.069-0.392-0.2c-2.736-3.803-12.882-1.061-12.984-1.033  c-0.253,0.069-0.524-0.08-0.594-0.338C29.138,38.2,29.288,37.935,29.545,37.864z"></path><path d="M89.924,51.791c-0.99-1.835-2.357-3.372-3.679-4.856c-2.175-2.438-4.05-4.545-4.05-7.527c0-1.185,0.259-2.043,0.559-3.035  c0.355-1.175,0.758-2.507,0.758-4.46c0-5.067-1.158-9.29-3.437-12.552C73.328,9.698,62.451,5,46.823,5  c-13.493,0-25.43,5.582-31.932,14.932c-4.266,6.134-8.155,16.67-2.466,31.985c1.848,5.3,5.202,9.051,7.896,12.065  c2.483,2.777,4.446,4.974,4.446,7.267c0,2.562-0.733,6.878-2.37,10.747c-2.295,5.421-3.232,7.236-3.241,7.254  c-0.73,1.402-0.758,2.854-0.075,3.979S21.062,95,22.642,95h37.862c0.079,0,0.157-0.007,0.232-0.018  C60.814,94.994,60.893,95,60.969,95c0.467,0,0.928-0.204,1.241-0.598c1.808-2.254,0.874-7.598,0.545-9.182  c-0.153-0.746-0.032-1.388,0.341-1.804c0.377-0.415,1.002-0.603,1.76-0.524c0.014,0.002,1.726,0.176,6.629,0.752  c4.272,0.502,7.201,0.217,9.217-0.897c5.104-2.815,2.697-7.489,1.542-9.735c-0.202-0.394-0.468-0.904-0.578-1.172  c0.203-0.135,0.556-0.307,0.808-0.43c1.041-0.508,2.78-1.359,2.78-3.352c0-0.896-0.321-1.52-0.774-1.959  c1.072-0.379,2.018-1.098,2.018-2.568c0-1.5-0.739-2.436-1.279-3.119c-0.363-0.461-0.568-0.735-0.642-1.089  c0.304-0.154,0.833-0.341,1.213-0.476c1.452-0.514,3.26-1.152,4.089-2.81C90.591,54.611,90.607,53.063,89.924,51.791z   M87.031,54.616c-0.254,0.508-1.439,0.926-2.303,1.231c-1.422,0.502-3.369,1.188-3.369,3.146c0,1.67,0.787,2.664,1.358,3.391  c0.285,0.36,0.447,0.578,0.527,0.782c-0.371,0.098-0.947,0.168-1.302,0.212c-1.189,0.147-3.405,0.427-3.336,2.433  c0.063,1.813,1.871,2.166,2.74,2.336c0.105,0.019,0.238,0.045,0.369,0.074c-0.21,0.116-0.46,0.238-0.644,0.328  c-0.99,0.483-2.646,1.292-2.646,3.146c0,0.863,0.435,1.705,0.982,2.771c1.585,3.077,1.784,4.37-0.249,5.492  c-1.389,0.766-3.776,0.938-7.309,0.521c-4.957-0.582-6.678-0.758-6.679-0.758c-1.764-0.178-3.387,0.393-4.442,1.563  c-1.057,1.171-1.455,2.84-1.096,4.58c0.467,2.258,0.58,4.751,0.321,5.946H22.641c-0.549,0-0.789-0.154-0.839-0.236  c-0.05-0.082-0.078-0.368,0.176-0.854c0.04-0.076,0.988-1.906,3.351-7.484c1.935-4.574,2.622-9.316,2.622-11.988  c0-3.508-2.436-6.232-5.257-9.389c-2.636-2.948-5.624-6.291-7.273-11.021c-4.133-11.127-3.412-21.186,2.084-29.09  c5.907-8.495,16.867-13.566,29.318-13.566c14.511,0,24.534,4.253,30.646,13.001c1.897,2.716,2.86,6.328,2.86,10.729  c0,1.484-0.302,2.483-0.62,3.54c-0.34,1.131-0.693,2.3-0.693,3.955c0,4.194,2.469,6.965,4.854,9.646  c1.256,1.409,2.44,2.74,3.253,4.248C87.387,53.794,87.146,54.384,87.031,54.616z"></path></svg>